<svg width="38" height="38" viewBox="0 0 38 38" fill="none" xmlns="http://www.w3.org/2000/svg">
<path d="M29.9739 8.93222C27.9556 8.00613 25.7912 7.32382 23.5283 6.93304C23.4871 6.92549 23.4459 6.94434 23.4247 6.98204C23.1463 7.47711 22.838 8.12298 22.6221 8.63063C20.1881 8.26624 17.7666 8.26624 15.3826 8.63063C15.1666 8.1117 14.8471 7.47711 14.5675 6.98204C14.5463 6.9456 14.5051 6.92675 14.4639 6.93304C12.2022 7.32257 10.0378 8.00488 8.01826 8.93222C8.00078 8.93976 7.98579 8.95233 7.97584 8.96866C3.87053 15.1019 2.74591 21.0844 3.29761 26.9927C3.30011 27.0216 3.31633 27.0493 3.3388 27.0669C6.04737 29.056 8.67108 30.2636 11.2461 31.064C11.2873 31.0765 11.3309 31.0615 11.3572 31.0275C11.9663 30.1957 12.5093 29.3186 12.9748 28.3963C13.0023 28.3423 12.9761 28.2782 12.9199 28.2568C12.0587 27.9301 11.2386 27.5318 10.4497 27.0795C10.3873 27.043 10.3823 26.9538 10.4397 26.911C10.6057 26.7866 10.7718 26.6572 10.9303 26.5265C10.959 26.5027 10.9989 26.4976 11.0327 26.5127C16.2151 28.8788 21.8257 28.8788 26.947 26.5127C26.9807 26.4964 27.0207 26.5014 27.0506 26.5253C27.2092 26.656 27.3752 26.7866 27.5425 26.911C27.5999 26.9538 27.5961 27.043 27.5337 27.0795C26.7449 27.5406 25.9248 27.9301 25.0623 28.2556C25.0061 28.2769 24.9812 28.3423 25.0086 28.3963C25.4842 29.3173 26.0271 30.1944 26.625 31.0263C26.65 31.0615 26.6949 31.0765 26.7361 31.064C29.3236 30.2636 31.9473 29.056 34.6559 27.0669C34.6796 27.0493 34.6946 27.0229 34.6971 26.994C35.3573 20.1633 33.5911 14.2299 30.0151 8.96991C30.0063 8.95233 29.9914 8.93976 29.9739 8.93222ZM13.7487 23.3952C12.1884 23.3952 10.9028 21.9627 10.9028 20.2035C10.9028 18.4444 12.1635 17.0119 13.7487 17.0119C15.3464 17.0119 16.6195 18.4569 16.5946 20.2035C16.5946 21.9627 15.3339 23.3952 13.7487 23.3952ZM24.2709 23.3952C22.7107 23.3952 21.4251 21.9627 21.4251 20.2035C21.4251 18.4444 22.6857 17.0119 24.2709 17.0119C25.8686 17.0119 27.1418 18.4569 27.1168 20.2035C27.1168 21.9627 25.8686 23.3952 24.2709 23.3952Z" fill="white"/>
</svg>
