<svg width="329" height="39" viewBox="0 0 329 39" fill="none" xmlns="http://www.w3.org/2000/svg">
<rect x="148" width="181" height="39" rx="19.5" fill="#131313"/>
<path d="M183.859 19.5163H174.829" stroke="white" stroke-width="1.5" stroke-linecap="round" stroke-linejoin="round"/>
<path d="M181.664 17.3293L183.86 19.5163L181.664 21.7033" stroke="white" stroke-width="1.5" stroke-linecap="round" stroke-linejoin="round"/>
<path d="M178.378 16.0417V15.342C178.378 13.8157 179.615 12.579 181.142 12.579H184.805C186.327 12.579 187.561 13.8127 187.561 15.3352V23.6902C187.561 25.2165 186.324 26.454 184.797 26.454H181.134C179.612 26.454 178.378 25.2195 178.378 23.6977V22.9912" stroke="white" stroke-width="1.5" stroke-linecap="round" stroke-linejoin="round"/>
<path d="M201.011 25V13.3636H205.602C206.485 13.3636 207.237 13.5322 207.858 13.8693C208.479 14.2027 208.953 14.6667 209.278 15.2614C209.608 15.8523 209.773 16.5341 209.773 17.3068C209.773 18.0795 209.606 18.7614 209.273 19.3523C208.939 19.9432 208.456 20.4034 207.824 20.733C207.195 21.0625 206.434 21.2273 205.54 21.2273H202.614V19.2557H205.142C205.616 19.2557 206.006 19.1742 206.312 19.0114C206.623 18.8447 206.854 18.6155 207.006 18.3239C207.161 18.0284 207.239 17.6894 207.239 17.3068C207.239 16.9205 207.161 16.5833 207.006 16.2955C206.854 16.0038 206.623 15.7784 206.312 15.6193C206.002 15.4564 205.608 15.375 205.131 15.375H203.472V25H201.011ZM215.162 25.1705C214.264 25.1705 213.491 24.9886 212.844 24.625C212.2 24.2576 211.704 23.7386 211.355 23.0682C211.007 22.3939 210.832 21.5966 210.832 20.6761C210.832 19.7784 211.007 18.9905 211.355 18.3125C211.704 17.6345 212.194 17.1061 212.827 16.7273C213.463 16.3485 214.209 16.1591 215.065 16.1591C215.641 16.1591 216.177 16.2519 216.673 16.4375C217.173 16.6193 217.609 16.8939 217.98 17.2614C218.355 17.6288 218.647 18.0909 218.855 18.6477C219.063 19.2008 219.168 19.8485 219.168 20.5909V21.2557H211.798V19.7557H216.889C216.889 19.4072 216.813 19.0985 216.662 18.8295C216.51 18.5606 216.3 18.3504 216.031 18.1989C215.766 18.0436 215.457 17.9659 215.105 17.9659C214.738 17.9659 214.412 18.0511 214.128 18.2216C213.848 18.3883 213.628 18.6136 213.469 18.8977C213.31 19.178 213.228 19.4905 213.224 19.8352V21.2614C213.224 21.6932 213.304 22.0663 213.463 22.3807C213.626 22.6951 213.855 22.9375 214.151 23.108C214.446 23.2784 214.796 23.3636 215.202 23.3636C215.471 23.3636 215.717 23.3258 215.94 23.25C216.164 23.1742 216.355 23.0606 216.514 22.9091C216.673 22.7576 216.795 22.572 216.878 22.3523L219.116 22.5C219.003 23.0379 218.77 23.5076 218.418 23.9091C218.069 24.3068 217.618 24.6174 217.065 24.8409C216.516 25.0606 215.882 25.1705 215.162 25.1705ZM226.724 16.2727V18.1761H223.099V25H220.747V16.2727H226.724ZM230.513 21.8068L233.655 16.2727H236.041V25H233.734V19.4489L230.604 25H228.2V16.2727H230.513V21.8068ZM241.925 25.1705C241.031 25.1705 240.262 24.9811 239.618 24.6023C238.978 24.2197 238.485 23.6894 238.141 23.0114C237.8 22.3333 237.629 21.553 237.629 20.6705C237.629 19.7765 237.802 18.9924 238.146 18.3182C238.495 17.6402 238.989 17.1117 239.629 16.733C240.269 16.3504 241.031 16.1591 241.913 16.1591C242.675 16.1591 243.341 16.2973 243.913 16.5739C244.485 16.8504 244.938 17.2386 245.271 17.7386C245.605 18.2386 245.788 18.8258 245.822 19.5H243.538C243.474 19.0644 243.304 18.714 243.027 18.4489C242.754 18.1799 242.396 18.0455 241.953 18.0455C241.578 18.0455 241.25 18.1477 240.97 18.3523C240.694 18.553 240.478 18.8466 240.322 19.233C240.167 19.6193 240.089 20.0871 240.089 20.6364C240.089 21.1932 240.165 21.6667 240.317 22.0568C240.472 22.447 240.69 22.7443 240.97 22.9489C241.25 23.1534 241.578 23.2557 241.953 23.2557C242.23 23.2557 242.478 23.1989 242.697 23.0852C242.921 22.9716 243.105 22.8068 243.249 22.5909C243.396 22.3712 243.493 22.108 243.538 21.8011H245.822C245.785 22.4678 245.603 23.0549 245.277 23.5625C244.955 24.0663 244.51 24.4602 243.942 24.7443C243.374 25.0284 242.701 25.1705 241.925 25.1705ZM246.777 18.1761V16.2727H254.686V18.1761H251.874V25H249.567V18.1761H246.777ZM256.153 28.2727V16.2727H258.54V17.7386H258.648C258.754 17.5038 258.907 17.2652 259.108 17.0227C259.313 16.7765 259.578 16.572 259.903 16.4091C260.233 16.2424 260.642 16.1591 261.131 16.1591C261.767 16.1591 262.354 16.3258 262.892 16.6591C263.43 16.9886 263.86 17.4867 264.182 18.1534C264.504 18.8163 264.665 19.6477 264.665 20.6477C264.665 21.6212 264.508 22.4432 264.193 23.1136C263.883 23.7803 263.458 24.286 262.92 24.6307C262.386 24.9716 261.788 25.142 261.125 25.142C260.655 25.142 260.256 25.0644 259.926 24.9091C259.6 24.7538 259.333 24.5587 259.125 24.3239C258.917 24.0852 258.758 23.8447 258.648 23.6023H258.574V28.2727H256.153ZM258.523 20.6364C258.523 21.1553 258.595 21.608 258.739 21.9943C258.883 22.3807 259.091 22.6818 259.364 22.8977C259.636 23.1098 259.968 23.2159 260.358 23.2159C260.752 23.2159 261.085 23.108 261.358 22.892C261.631 22.6723 261.837 22.3693 261.977 21.983C262.121 21.5928 262.193 21.1439 262.193 20.6364C262.193 20.1326 262.123 19.6894 261.983 19.3068C261.843 18.9242 261.636 18.625 261.364 18.4091C261.091 18.1932 260.756 18.0852 260.358 18.0852C259.964 18.0852 259.631 18.1894 259.358 18.3977C259.089 18.6061 258.883 18.9015 258.739 19.2841C258.595 19.6667 258.523 20.1174 258.523 20.6364ZM268.767 25.1648C268.21 25.1648 267.714 25.0682 267.278 24.875C266.843 24.678 266.498 24.3883 266.244 24.0057C265.994 23.6193 265.869 23.1383 265.869 22.5625C265.869 22.0777 265.958 21.6705 266.136 21.3409C266.314 21.0114 266.557 20.7462 266.864 20.5455C267.17 20.3447 267.519 20.1932 267.909 20.0909C268.303 19.9886 268.716 19.9167 269.148 19.875C269.655 19.822 270.064 19.7727 270.375 19.7273C270.686 19.678 270.911 19.6061 271.051 19.5114C271.191 19.4167 271.261 19.2765 271.261 19.0909V19.0568C271.261 18.697 271.148 18.4186 270.92 18.2216C270.697 18.0246 270.379 17.9261 269.966 17.9261C269.53 17.9261 269.184 18.0227 268.926 18.2159C268.669 18.4053 268.498 18.6439 268.415 18.9318L266.176 18.75C266.29 18.2197 266.513 17.7614 266.847 17.375C267.18 16.9848 267.61 16.6856 268.136 16.4773C268.667 16.2652 269.28 16.1591 269.977 16.1591C270.462 16.1591 270.926 16.2159 271.369 16.3295C271.816 16.4432 272.212 16.6193 272.557 16.858C272.905 17.0966 273.18 17.4034 273.381 17.7784C273.581 18.1496 273.682 18.5947 273.682 19.1136V25H271.386V23.7898H271.318C271.178 24.0625 270.991 24.303 270.756 24.5114C270.521 24.7159 270.239 24.8769 269.909 24.9943C269.58 25.108 269.199 25.1648 268.767 25.1648ZM269.46 23.4943C269.816 23.4943 270.131 23.4242 270.403 23.2841C270.676 23.1402 270.89 22.947 271.045 22.7045C271.201 22.4621 271.278 22.1875 271.278 21.8807V20.9545C271.203 21.0038 271.098 21.0492 270.966 21.0909C270.837 21.1288 270.691 21.1648 270.528 21.1989C270.366 21.2292 270.203 21.2576 270.04 21.2841C269.877 21.3068 269.729 21.3277 269.597 21.3466C269.313 21.3883 269.064 21.4545 268.852 21.5455C268.64 21.6364 268.475 21.7595 268.358 21.9148C268.241 22.0663 268.182 22.2557 268.182 22.483C268.182 22.8125 268.301 23.0644 268.54 23.2386C268.782 23.4091 269.089 23.4943 269.46 23.4943ZM283.19 16.2727V23.3295H284.582V27.8068H282.23V25H275.56V16.2727H277.872V23.0966H280.906V16.2727H283.19ZM288.388 21.8068L291.53 16.2727H293.916V25H291.609V19.4489L288.479 25H286.075V16.2727H288.388V21.8068ZM300.97 25V18.1705H299.334C298.891 18.1705 298.554 18.2727 298.322 18.4773C298.091 18.6818 297.978 18.9242 297.982 19.2045C297.978 19.4886 298.088 19.7292 298.311 19.9261C298.538 20.1193 298.872 20.2159 299.311 20.2159H301.777V21.8523H299.311C298.565 21.8523 297.919 21.7386 297.374 21.5114C296.828 21.2841 296.408 20.9678 296.112 20.5625C295.817 20.1534 295.671 19.678 295.675 19.1364C295.671 18.5682 295.817 18.0701 296.112 17.642C296.408 17.2102 296.83 16.875 297.379 16.6364C297.932 16.3939 298.584 16.2727 299.334 16.2727H303.226V25H300.97ZM295.425 25L297.851 20.4545H300.163L297.743 25H295.425Z" fill="white"/>
<path fill-rule="evenodd" clip-rule="evenodd" d="M36.2507 12.5626H29.749C27.4832 12.5626 26.0627 14.1669 26.0627 16.4371V22.5631C26.0627 24.8334 27.4765 26.4376 29.749 26.4376H36.25C38.5232 26.4376 39.9377 24.8334 39.9377 22.5631V16.4371C39.9377 14.1669 38.5232 12.5626 36.2507 12.5626Z" stroke="#131313" stroke-width="1.5" stroke-linecap="round" stroke-linejoin="round"/>
<path fill-rule="evenodd" clip-rule="evenodd" d="M32.0192 19.5001C32.0192 20.2666 31.3974 20.8891 30.6302 20.8891C29.8637 20.8891 29.2419 20.2666 29.2419 19.5001C29.2419 18.7336 29.8637 18.1111 30.6302 18.1111C31.3974 18.1111 32.0192 18.7336 32.0192 19.5001Z" stroke="#131313" stroke-width="1.5" stroke-linecap="round" stroke-linejoin="round"/>
<path d="M32.0193 19.5001H36.7578V20.8891" stroke="#131313" stroke-width="1.5" stroke-linecap="round" stroke-linejoin="round"/>
<path d="M34.6362 20.8888V19.4998" stroke="#131313" stroke-width="1.5" stroke-linecap="round" stroke-linejoin="round"/>
<path d="M53.0114 25V13.3636H57.6705C58.5265 13.3636 59.2405 13.4905 59.8125 13.7443C60.3845 13.9981 60.8144 14.3504 61.1023 14.8011C61.3902 15.2481 61.5341 15.7633 61.5341 16.3466C61.5341 16.8011 61.4432 17.2008 61.2614 17.5455C61.0795 17.8864 60.8295 18.1667 60.5114 18.3864C60.197 18.6023 59.8371 18.7557 59.4318 18.8466V18.9602C59.875 18.9792 60.2898 19.1042 60.6761 19.3352C61.0663 19.5663 61.3826 19.8902 61.625 20.3068C61.8674 20.7197 61.9886 21.2121 61.9886 21.7841C61.9886 22.4015 61.8352 22.9527 61.5284 23.4375C61.2254 23.9186 60.7765 24.2992 60.1818 24.5795C59.5871 24.8598 58.8542 25 57.983 25H53.0114ZM55.4716 22.9886H57.4773C58.1629 22.9886 58.6629 22.858 58.9773 22.5966C59.2917 22.3314 59.4489 21.9792 59.4489 21.5398C59.4489 21.2178 59.3712 20.9337 59.2159 20.6875C59.0606 20.4413 58.839 20.2481 58.5511 20.108C58.267 19.9678 57.928 19.8977 57.5341 19.8977H55.4716V22.9886ZM55.4716 18.233H57.2955C57.6326 18.233 57.9318 18.1742 58.1932 18.0568C58.4583 17.9356 58.6667 17.7652 58.8182 17.5455C58.9735 17.3258 59.0511 17.0625 59.0511 16.7557C59.0511 16.3352 58.9015 15.9962 58.6023 15.7386C58.3068 15.4811 57.8864 15.3523 57.3409 15.3523H55.4716V18.233ZM65.5668 16.2727L67.169 19.3239L68.8111 16.2727H71.294L68.7656 20.6364L71.3622 25H68.8906L67.169 21.983L65.4759 25H62.9759L65.5668 20.6364L63.0668 16.2727H65.5668ZM76.3622 25.1705C75.4796 25.1705 74.7164 24.983 74.0724 24.608C73.4323 24.2292 72.938 23.7027 72.5895 23.0284C72.241 22.3504 72.0668 21.5644 72.0668 20.6705C72.0668 19.7689 72.241 18.9811 72.5895 18.3068C72.938 17.6288 73.4323 17.1023 74.0724 16.7273C74.7164 16.3485 75.4796 16.1591 76.3622 16.1591C77.2448 16.1591 78.0062 16.3485 78.6463 16.7273C79.2902 17.1023 79.7865 17.6288 80.1349 18.3068C80.4834 18.9811 80.6577 19.7689 80.6577 20.6705C80.6577 21.5644 80.4834 22.3504 80.1349 23.0284C79.7865 23.7027 79.2902 24.2292 78.6463 24.608C78.0062 24.983 77.2448 25.1705 76.3622 25.1705ZM76.3736 23.2955C76.7751 23.2955 77.1103 23.1818 77.3793 22.9545C77.6482 22.7235 77.8509 22.4091 77.9872 22.0114C78.1274 21.6136 78.1974 21.161 78.1974 20.6534C78.1974 20.1458 78.1274 19.6932 77.9872 19.2955C77.8509 18.8977 77.6482 18.5833 77.3793 18.3523C77.1103 18.1212 76.7751 18.0057 76.3736 18.0057C75.9683 18.0057 75.6274 18.1212 75.3509 18.3523C75.0781 18.5833 74.8717 18.8977 74.7315 19.2955C74.5952 19.6932 74.527 20.1458 74.527 20.6534C74.527 21.161 74.5952 21.6136 74.7315 22.0114C74.8717 22.4091 75.0781 22.7235 75.3509 22.9545C75.6274 23.1818 75.9683 23.2955 76.3736 23.2955ZM81.5497 27.5568V23.0795H82.2202C82.4134 22.9583 82.5687 22.7652 82.6861 22.5C82.8073 22.2348 82.9058 21.9223 82.9815 21.5625C83.0611 21.2027 83.1217 20.8144 83.1634 20.3977C83.2088 19.9773 83.2486 19.553 83.2827 19.125L83.5099 16.2727H90.2031V23.0795H91.5554V27.5568H89.2486V25H83.9134V27.5568H81.5497ZM84.6293 23.0795H87.919V18.1364H85.5668L85.4759 19.125C85.4115 20.0568 85.3187 20.8485 85.1974 21.5C85.0762 22.1477 84.8868 22.6742 84.6293 23.0795Z" fill="#131313"/>
<rect x="0.5" y="0.5" width="115" height="38" rx="19" stroke="#131313"/>
</svg>
