<svg width="116" height="39" viewBox="0 0 116 39" fill="none" xmlns="http://www.w3.org/2000/svg">
<path fill-rule="evenodd" clip-rule="evenodd" d="M36.2507 12.5626H29.749C27.4832 12.5626 26.0627 14.1669 26.0627 16.4371V22.5631C26.0627 24.8334 27.4765 26.4376 29.749 26.4376H36.25C38.5232 26.4376 39.9377 24.8334 39.9377 22.5631V16.4371C39.9377 14.1669 38.5232 12.5626 36.2507 12.5626Z" stroke="#131313" stroke-width="1.5" stroke-linecap="round" stroke-linejoin="round"/>
<path fill-rule="evenodd" clip-rule="evenodd" d="M32.0192 19.5001C32.0192 20.2666 31.3974 20.8891 30.6302 20.8891C29.8637 20.8891 29.2419 20.2666 29.2419 19.5001C29.2419 18.7336 29.8637 18.1111 30.6302 18.1111C31.3974 18.1111 32.0192 18.7336 32.0192 19.5001Z" stroke="#131313" stroke-width="1.5" stroke-linecap="round" stroke-linejoin="round"/>
<path d="M32.0193 19.5001H36.7578V20.8891" stroke="#131313" stroke-width="1.5" stroke-linecap="round" stroke-linejoin="round"/>
<path d="M34.6362 20.8888V19.4998" stroke="#131313" stroke-width="1.5" stroke-linecap="round" stroke-linejoin="round"/>
<path d="M53.0114 25V13.3636H57.6705C58.5265 13.3636 59.2405 13.4905 59.8125 13.7443C60.3845 13.9981 60.8144 14.3504 61.1023 14.8011C61.3902 15.2481 61.5341 15.7633 61.5341 16.3466C61.5341 16.8011 61.4432 17.2008 61.2614 17.5455C61.0795 17.8864 60.8295 18.1667 60.5114 18.3864C60.197 18.6023 59.8371 18.7557 59.4318 18.8466V18.9602C59.875 18.9792 60.2898 19.1042 60.6761 19.3352C61.0663 19.5663 61.3826 19.8902 61.625 20.3068C61.8674 20.7197 61.9886 21.2121 61.9886 21.7841C61.9886 22.4015 61.8352 22.9527 61.5284 23.4375C61.2254 23.9186 60.7765 24.2992 60.1818 24.5795C59.5871 24.8598 58.8542 25 57.983 25H53.0114ZM55.4716 22.9886H57.4773C58.1629 22.9886 58.6629 22.858 58.9773 22.5966C59.2917 22.3314 59.4489 21.9792 59.4489 21.5398C59.4489 21.2178 59.3712 20.9337 59.2159 20.6875C59.0606 20.4413 58.839 20.2481 58.5511 20.108C58.267 19.9678 57.928 19.8977 57.5341 19.8977H55.4716V22.9886ZM55.4716 18.233H57.2955C57.6326 18.233 57.9318 18.1742 58.1932 18.0568C58.4583 17.9356 58.6667 17.7652 58.8182 17.5455C58.9735 17.3258 59.0511 17.0625 59.0511 16.7557C59.0511 16.3352 58.9015 15.9962 58.6023 15.7386C58.3068 15.4811 57.8864 15.3523 57.3409 15.3523H55.4716V18.233ZM65.5668 16.2727L67.169 19.3239L68.8111 16.2727H71.294L68.7656 20.6364L71.3622 25H68.8906L67.169 21.983L65.4759 25H62.9759L65.5668 20.6364L63.0668 16.2727H65.5668ZM76.3622 25.1705C75.4796 25.1705 74.7164 24.983 74.0724 24.608C73.4323 24.2292 72.938 23.7027 72.5895 23.0284C72.241 22.3504 72.0668 21.5644 72.0668 20.6705C72.0668 19.7689 72.241 18.9811 72.5895 18.3068C72.938 17.6288 73.4323 17.1023 74.0724 16.7273C74.7164 16.3485 75.4796 16.1591 76.3622 16.1591C77.2448 16.1591 78.0062 16.3485 78.6463 16.7273C79.2902 17.1023 79.7865 17.6288 80.1349 18.3068C80.4834 18.9811 80.6577 19.7689 80.6577 20.6705C80.6577 21.5644 80.4834 22.3504 80.1349 23.0284C79.7865 23.7027 79.2902 24.2292 78.6463 24.608C78.0062 24.983 77.2448 25.1705 76.3622 25.1705ZM76.3736 23.2955C76.7751 23.2955 77.1103 23.1818 77.3793 22.9545C77.6482 22.7235 77.8509 22.4091 77.9872 22.0114C78.1274 21.6136 78.1974 21.161 78.1974 20.6534C78.1974 20.1458 78.1274 19.6932 77.9872 19.2955C77.8509 18.8977 77.6482 18.5833 77.3793 18.3523C77.1103 18.1212 76.7751 18.0057 76.3736 18.0057C75.9683 18.0057 75.6274 18.1212 75.3509 18.3523C75.0781 18.5833 74.8717 18.8977 74.7315 19.2955C74.5952 19.6932 74.527 20.1458 74.527 20.6534C74.527 21.161 74.5952 21.6136 74.7315 22.0114C74.8717 22.4091 75.0781 22.7235 75.3509 22.9545C75.6274 23.1818 75.9683 23.2955 76.3736 23.2955ZM81.5497 27.5568V23.0795H82.2202C82.4134 22.9583 82.5687 22.7652 82.6861 22.5C82.8073 22.2348 82.9058 21.9223 82.9815 21.5625C83.0611 21.2027 83.1217 20.8144 83.1634 20.3977C83.2088 19.9773 83.2486 19.553 83.2827 19.125L83.5099 16.2727H90.2031V23.0795H91.5554V27.5568H89.2486V25H83.9134V27.5568H81.5497ZM84.6293 23.0795H87.919V18.1364H85.5668L85.4759 19.125C85.4115 20.0568 85.3187 20.8485 85.1974 21.5C85.0762 22.1477 84.8868 22.6742 84.6293 23.0795Z" fill="#131313"/>
<rect x="0.5" y="0.5" width="115" height="38" rx="19" stroke="#131313"/>
</svg>
