<svg width="181" height="39" viewBox="0 0 181 39" fill="none" xmlns="http://www.w3.org/2000/svg">
<rect width="181" height="39" rx="19.5" fill="#131313"/>
<path d="M35.8594 19.5163H26.8286" stroke="white" stroke-width="1.5" stroke-linecap="round" stroke-linejoin="round"/>
<path d="M33.6636 17.3293L35.8596 19.5163L33.6636 21.7033" stroke="white" stroke-width="1.5" stroke-linecap="round" stroke-linejoin="round"/>
<path d="M30.3782 16.0417V15.342C30.3782 13.8157 31.6149 12.579 33.1419 12.579H36.8049C38.3274 12.579 39.5612 13.8127 39.5612 15.3352V23.6902C39.5612 25.2165 38.3237 26.454 36.7974 26.454H33.1337C31.6119 26.454 30.3782 25.2195 30.3782 23.6977V22.9912" stroke="white" stroke-width="1.5" stroke-linecap="round" stroke-linejoin="round"/>
<path d="M53.0114 25V13.3636H57.6023C58.4848 13.3636 59.2367 13.5322 59.858 13.8693C60.4792 14.2027 60.9527 14.6667 61.2784 15.2614C61.608 15.8523 61.7727 16.5341 61.7727 17.3068C61.7727 18.0795 61.6061 18.7614 61.2727 19.3523C60.9394 19.9432 60.4564 20.4034 59.8239 20.733C59.1951 21.0625 58.4337 21.2273 57.5398 21.2273H54.6136V19.2557H57.142C57.6155 19.2557 58.0057 19.1742 58.3125 19.0114C58.6231 18.8447 58.8542 18.6155 59.0057 18.3239C59.161 18.0284 59.2386 17.6894 59.2386 17.3068C59.2386 16.9205 59.161 16.5833 59.0057 16.2955C58.8542 16.0038 58.6231 15.7784 58.3125 15.6193C58.0019 15.4564 57.608 15.375 57.1307 15.375H55.4716V25H53.0114ZM67.1619 25.1705C66.2642 25.1705 65.4915 24.9886 64.8438 24.625C64.1998 24.2576 63.7036 23.7386 63.3551 23.0682C63.0066 22.3939 62.8324 21.5966 62.8324 20.6761C62.8324 19.7784 63.0066 18.9905 63.3551 18.3125C63.7036 17.6345 64.1941 17.1061 64.8267 16.7273C65.4631 16.3485 66.2093 16.1591 67.0653 16.1591C67.6411 16.1591 68.1771 16.2519 68.6733 16.4375C69.1733 16.6193 69.6089 16.8939 69.9801 17.2614C70.3551 17.6288 70.6468 18.0909 70.8551 18.6477C71.0634 19.2008 71.1676 19.8485 71.1676 20.5909V21.2557H63.7983V19.7557H68.8892C68.8892 19.4072 68.8134 19.0985 68.6619 18.8295C68.5104 18.5606 68.3002 18.3504 68.0312 18.1989C67.7661 18.0436 67.4574 17.9659 67.1051 17.9659C66.7377 17.9659 66.4119 18.0511 66.1278 18.2216C65.8475 18.3883 65.6278 18.6136 65.4688 18.8977C65.3097 19.178 65.2282 19.4905 65.2244 19.8352V21.2614C65.2244 21.6932 65.304 22.0663 65.4631 22.3807C65.6259 22.6951 65.8551 22.9375 66.1506 23.108C66.446 23.2784 66.7964 23.3636 67.2017 23.3636C67.4706 23.3636 67.7169 23.3258 67.9403 23.25C68.1638 23.1742 68.3551 23.0606 68.5142 22.9091C68.6733 22.7576 68.7945 22.572 68.8778 22.3523L71.1165 22.5C71.0028 23.0379 70.7699 23.5076 70.4176 23.9091C70.0691 24.3068 69.6184 24.6174 69.0653 24.8409C68.5161 25.0606 67.8816 25.1705 67.1619 25.1705ZM78.7244 16.2727V18.1761H75.0994V25H72.7472V16.2727H78.7244ZM82.5128 21.8068L85.6548 16.2727H88.0412V25H85.7344V19.4489L82.6037 25H80.2003V16.2727H82.5128V21.8068ZM93.9247 25.1705C93.0308 25.1705 92.2618 24.9811 91.6179 24.6023C90.9777 24.2197 90.4853 23.6894 90.1406 23.0114C89.7997 22.3333 89.6293 21.553 89.6293 20.6705C89.6293 19.7765 89.8016 18.9924 90.1463 18.3182C90.4948 17.6402 90.9891 17.1117 91.6293 16.733C92.2694 16.3504 93.0308 16.1591 93.9134 16.1591C94.6747 16.1591 95.3414 16.2973 95.9134 16.5739C96.4853 16.8504 96.938 17.2386 97.2713 17.7386C97.6046 18.2386 97.7884 18.8258 97.8224 19.5H95.5384C95.474 19.0644 95.3035 18.714 95.027 18.4489C94.7543 18.1799 94.3963 18.0455 93.9531 18.0455C93.5781 18.0455 93.2505 18.1477 92.9702 18.3523C92.6937 18.553 92.4777 18.8466 92.3224 19.233C92.1671 19.6193 92.0895 20.0871 92.0895 20.6364C92.0895 21.1932 92.1652 21.6667 92.3168 22.0568C92.4721 22.447 92.6899 22.7443 92.9702 22.9489C93.2505 23.1534 93.5781 23.2557 93.9531 23.2557C94.2296 23.2557 94.4777 23.1989 94.6974 23.0852C94.9209 22.9716 95.1046 22.8068 95.2486 22.5909C95.3963 22.3712 95.4929 22.108 95.5384 21.8011H97.8224C97.7846 22.4678 97.6027 23.0549 97.277 23.5625C96.955 24.0663 96.5099 24.4602 95.9418 24.7443C95.3736 25.0284 94.7012 25.1705 93.9247 25.1705ZM98.777 18.1761V16.2727H106.686V18.1761H103.874V25H101.567V18.1761H98.777ZM108.153 28.2727V16.2727H110.54V17.7386H110.648C110.754 17.5038 110.907 17.2652 111.108 17.0227C111.313 16.7765 111.578 16.572 111.903 16.4091C112.233 16.2424 112.642 16.1591 113.131 16.1591C113.767 16.1591 114.354 16.3258 114.892 16.6591C115.43 16.9886 115.86 17.4867 116.182 18.1534C116.504 18.8163 116.665 19.6477 116.665 20.6477C116.665 21.6212 116.508 22.4432 116.193 23.1136C115.883 23.7803 115.458 24.286 114.92 24.6307C114.386 24.9716 113.788 25.142 113.125 25.142C112.655 25.142 112.256 25.0644 111.926 24.9091C111.6 24.7538 111.333 24.5587 111.125 24.3239C110.917 24.0852 110.758 23.8447 110.648 23.6023H110.574V28.2727H108.153ZM110.523 20.6364C110.523 21.1553 110.595 21.608 110.739 21.9943C110.883 22.3807 111.091 22.6818 111.364 22.8977C111.636 23.1098 111.968 23.2159 112.358 23.2159C112.752 23.2159 113.085 23.108 113.358 22.892C113.631 22.6723 113.837 22.3693 113.977 21.983C114.121 21.5928 114.193 21.1439 114.193 20.6364C114.193 20.1326 114.123 19.6894 113.983 19.3068C113.843 18.9242 113.636 18.625 113.364 18.4091C113.091 18.1932 112.756 18.0852 112.358 18.0852C111.964 18.0852 111.631 18.1894 111.358 18.3977C111.089 18.6061 110.883 18.9015 110.739 19.2841C110.595 19.6667 110.523 20.1174 110.523 20.6364ZM120.767 25.1648C120.21 25.1648 119.714 25.0682 119.278 24.875C118.843 24.678 118.498 24.3883 118.244 24.0057C117.994 23.6193 117.869 23.1383 117.869 22.5625C117.869 22.0777 117.958 21.6705 118.136 21.3409C118.314 21.0114 118.557 20.7462 118.864 20.5455C119.17 20.3447 119.519 20.1932 119.909 20.0909C120.303 19.9886 120.716 19.9167 121.148 19.875C121.655 19.822 122.064 19.7727 122.375 19.7273C122.686 19.678 122.911 19.6061 123.051 19.5114C123.191 19.4167 123.261 19.2765 123.261 19.0909V19.0568C123.261 18.697 123.148 18.4186 122.92 18.2216C122.697 18.0246 122.379 17.9261 121.966 17.9261C121.53 17.9261 121.184 18.0227 120.926 18.2159C120.669 18.4053 120.498 18.6439 120.415 18.9318L118.176 18.75C118.29 18.2197 118.513 17.7614 118.847 17.375C119.18 16.9848 119.61 16.6856 120.136 16.4773C120.667 16.2652 121.28 16.1591 121.977 16.1591C122.462 16.1591 122.926 16.2159 123.369 16.3295C123.816 16.4432 124.212 16.6193 124.557 16.858C124.905 17.0966 125.18 17.4034 125.381 17.7784C125.581 18.1496 125.682 18.5947 125.682 19.1136V25H123.386V23.7898H123.318C123.178 24.0625 122.991 24.303 122.756 24.5114C122.521 24.7159 122.239 24.8769 121.909 24.9943C121.58 25.108 121.199 25.1648 120.767 25.1648ZM121.46 23.4943C121.816 23.4943 122.131 23.4242 122.403 23.2841C122.676 23.1402 122.89 22.947 123.045 22.7045C123.201 22.4621 123.278 22.1875 123.278 21.8807V20.9545C123.203 21.0038 123.098 21.0492 122.966 21.0909C122.837 21.1288 122.691 21.1648 122.528 21.1989C122.366 21.2292 122.203 21.2576 122.04 21.2841C121.877 21.3068 121.729 21.3277 121.597 21.3466C121.313 21.3883 121.064 21.4545 120.852 21.5455C120.64 21.6364 120.475 21.7595 120.358 21.9148C120.241 22.0663 120.182 22.2557 120.182 22.483C120.182 22.8125 120.301 23.0644 120.54 23.2386C120.782 23.4091 121.089 23.4943 121.46 23.4943ZM135.19 16.2727V23.3295H136.582V27.8068H134.23V25H127.56V16.2727H129.872V23.0966H132.906V16.2727H135.19ZM140.388 21.8068L143.53 16.2727H145.916V25H143.609V19.4489L140.479 25H138.075V16.2727H140.388V21.8068ZM152.97 25V18.1705H151.334C150.891 18.1705 150.554 18.2727 150.322 18.4773C150.091 18.6818 149.978 18.9242 149.982 19.2045C149.978 19.4886 150.088 19.7292 150.311 19.9261C150.538 20.1193 150.872 20.2159 151.311 20.2159H153.777V21.8523H151.311C150.565 21.8523 149.919 21.7386 149.374 21.5114C148.828 21.2841 148.408 20.9678 148.112 20.5625C147.817 20.1534 147.671 19.678 147.675 19.1364C147.671 18.5682 147.817 18.0701 148.112 17.642C148.408 17.2102 148.83 16.875 149.379 16.6364C149.932 16.3939 150.584 16.2727 151.334 16.2727H155.226V25H152.97ZM147.425 25L149.851 20.4545H152.163L149.743 25H147.425Z" fill="white"/>
</svg>
