<svg width="38" height="38" viewBox="0 0 38 38" fill="none" xmlns="http://www.w3.org/2000/svg">
<path d="M31.5915 12.5402C31.6108 12.8194 31.6108 13.0986 31.6108 13.3803C31.6108 21.965 25.0755 31.8657 13.1254 31.8657V31.8606C9.59528 31.8657 6.13851 30.8545 3.16675 28.948C3.68005 29.0097 4.19593 29.0406 4.7131 29.0419C7.63855 29.0445 10.4804 28.0629 12.7819 26.2554C10.0018 26.2026 7.56393 24.39 6.71228 21.7437C7.68615 21.9315 8.6896 21.8929 9.64545 21.6318C6.61451 21.0194 4.43393 18.3564 4.43393 15.2637C4.43393 15.2354 4.43393 15.2084 4.43393 15.1814C5.33704 15.6844 6.34821 15.9636 7.38254 15.9944C4.52784 14.0866 3.64789 10.2889 5.37177 7.31971C8.6703 11.3785 13.5371 13.846 18.7614 14.1072C18.2378 11.8507 18.9531 9.48614 20.641 7.89991C23.2577 5.44016 27.3731 5.56624 29.8329 8.18165C31.2879 7.89476 32.6824 7.36087 33.9586 6.60442C33.4736 8.10832 32.4586 9.38579 31.1026 10.1976C32.3904 10.0458 33.6486 9.70098 34.8334 9.17481C33.9612 10.4819 32.8625 11.6204 31.5915 12.5402Z" fill="white"/>
</svg>
